<?xml version="1.0" encoding="utf-8"?>
<!-- Generator: Adobe Illustrator 17.1.0, SVG Export Plug-In . SVG Version: 6.00 Build 0)  -->
<!DOCTYPE svg PUBLIC "-//W3C//DTD SVG 1.1//EN" "http://www.w3.org/Graphics/SVG/1.1/DTD/svg11.dtd">
<svg version="1.1" id="レイヤー_1" xmlns="http://www.w3.org/2000/svg" xmlns:xlink="http://www.w3.org/1999/xlink" x="0px"
	 y="0px" viewBox="0 0 24 24" enable-background="new 0 0 24 24" xml:space="preserve">
<path fill="#333333" d="M21.2,19.8C21.7,19,22,18,22,17c0-2.8-2.2-5-5-5s-5,2.2-5,5s2.2,5,5,5c1,0,2-0.3,2.8-0.8l2.8,2.8l1.4-1.4
	L21.2,19.8z M17,20c-1.7,0-3-1.3-3-3s1.3-3,3-3s3,1.3,3,3S18.7,20,17,20z M12.1,22H5l2.6-3h2.7C10.6,20.2,11.3,21.2,12.1,22z M10,17
	H0V0h22v12.1c-0.6-0.6-1.3-1.1-2-1.4V2H2v13h8.3C10.1,15.6,10,16.3,10,17z M6,13H4V7h2V13z M9,13H7V4h2V13z M12,13h-2V9h2V13z"/>
</svg>
