<?xml version="1.0" encoding="utf-8"?>
<!-- Generator: Adobe Illustrator 17.1.0, SVG Export Plug-In . SVG Version: 6.00 Build 0)  -->
<!DOCTYPE svg PUBLIC "-//W3C//DTD SVG 1.1//EN" "http://www.w3.org/Graphics/SVG/1.1/DTD/svg11.dtd">
<svg version="1.1" id="_x32_" xmlns="http://www.w3.org/2000/svg" xmlns:xlink="http://www.w3.org/1999/xlink" x="0px" y="0px"
	 viewBox="0 0 150 150" enable-background="new 0 0 150 150" xml:space="preserve">
<g>
	<path fill="#333333" d="M147.7,57.3c-3.1-1.9-8.7-12.7-9.9-14c-1.2-1.2-8.4-4-8.4-4l-4-12.7c-7.8,0.9-12.4,13.4-12.7,14.3
		c0,0-0.8,21.6-35.3,13.2c-24.7-6-39.6-11.8-52.1-0.1c-0.8-1.3-1.3-2.7-1.7-4.2c-0.7-2.7-0.9-5.7-0.9-9.2c0-1.7,0-3.5,0-5.4
		c0-3.9-0.1-8.3-1.2-12.9c-1-4.6-3-9.5-6.5-14.4c-1.5-2.1-4.4-2.6-6.5-1.1c-2.1,1.5-2.6,4.4-1.1,6.5c2.7,3.9,4.1,7.4,5,11
		c0.8,3.6,1,7.1,1,10.8c0,1.8,0,3.6,0,5.4c0,3.7,0.1,7.6,1.2,11.5c0.8,3.1,2.3,6.3,4.5,9.3c-9.7,15.2-4.4,31.4-4.4,31.4l-10,15.9
		c-0.2,0.3-0.3,0.6-0.4,0.9L0,133c-0.2,1,0.3,2.1,1.1,2.7l12,8.1c0.3,0.2,0.6,0.2,0.9,0.1c0.3-0.1,0.5-0.3,0.7-0.6l2.4-5.2
		c0.2-0.4,0.1-0.9-0.2-1.2l-3.1-3.4c-0.6-0.7-0.9-1.7-0.6-2.5l5.2-17.9c0.2-0.6,0.5-1.1,1-1.4l7-5c1-0.7,2.2-0.7,3.2,0.1
		c0.9,0.7,1.3,2,0.8,3.1l-3.1,7.8c-0.4,0.9-0.2,1.9,0.4,2.7l17.7,21.5h13.2c0.6,0,1.1-0.5,1.1-1.1v-6.6c0-0.6-0.5-1.1-1.1-1.1h-4.2
		c-1,0-1.9-0.5-2.3-1.4l-7.2-12c-0.5-0.9-0.4-2,0.2-2.8l6.4-8.5c0.5-0.7,1.3-1,2.1-1h17.9c0.8,0,1.6,0.4,2.1,1.1
		c0.5,0.7,0.6,1.6,0.4,2.4L68.4,129c-0.2,0.6-0.2,1.2,0.1,1.8l3.7,9.6h11.5v-2.5l-1.9-6c-0.2-0.6-0.2-1.2,0-1.7l7.8-21
		c0.4-1,1.4-1.7,2.5-1.7h7.9c0.7,0,1.4,0.3,1.9,0.8l21.9,30.3c0,0,11.2,0,14.9,0c3.7,0,2.3-7.4-1.2-7.8c-6.7-0.6-15.2-19.3-19-25.8
		c-3.7-6.5,7.2-26.7,15.5-27.7c8.4-0.9,12.7-4.4,14-9C150.5,65.4,150.9,59.2,147.7,57.3z"/>
</g>
</svg>
