<?xml version="1.0" encoding="utf-8"?>
<!-- Generator: Adobe Illustrator 17.1.0, SVG Export Plug-In . SVG Version: 6.00 Build 0)  -->
<!DOCTYPE svg PUBLIC "-//W3C//DTD SVG 1.1//EN" "http://www.w3.org/Graphics/SVG/1.1/DTD/svg11.dtd">
<svg version="1.1" id="_x32_" xmlns="http://www.w3.org/2000/svg" xmlns:xlink="http://www.w3.org/1999/xlink" x="0px" y="0px"
	 viewBox="0 0 150 150" enable-background="new 0 0 150 150" xml:space="preserve">
<g>
	<path fill="#333333" d="M108.8,102.9c0.8,1.7,0,3.6-1.6,4.4l-15.2,7c-1.7,0.8-3.6,0-4.4-1.6l-4.6-9.9c-0.8-1.7,0-3.6,1.6-4.4
		l15.2-7c1.7-0.8,3.6,0,4.4,1.6l0.4,1l19.1-8.8c0.3-0.1,0.6-0.3,1-0.5c0.5-3.2,0.8-6.4,0.8-9.7c0-34.7-28.1-62.7-62.7-62.7
		C28.1,12.3,0,40.3,0,75c0,34.6,28.1,62.7,62.7,62.7c27.4,0,50.7-17.6,59.2-42.1l-13.6,6.3L108.8,102.9z M62.7,100.7
		C48.5,100.7,37,89.2,37,75s11.5-25.7,25.7-25.7S88.4,60.8,88.4,75C88.4,89.2,76.9,100.7,62.7,100.7z"/>
	<path fill="#333333" d="M62.7,63.7c-6.2,0-11.3,5.1-11.3,11.3c0,6.2,5.1,11.3,11.3,11.3S74,81.2,74,75C74,68.7,68.9,63.7,62.7,63.7
		z"/>
	<path fill="#333333" d="M150,22.6h-21.5v26.3h6.3c0,9.8,0,18.9,0,18.9c0,7.1-3.9,13.6-10.2,16.9c-0.6,3.8-1.5,7.4-2.7,10.9l5.5-2.5
		c9.9-4.5,16.2-14.5,16.2-25.3c0,0,0-9.2,0-18.9h6.4V22.6z"/>
</g>
</svg>
