<?xml version="1.0" encoding="utf-8"?>
<!-- Generator: Adobe Illustrator 17.1.0, SVG Export Plug-In . SVG Version: 6.00 Build 0)  -->
<!DOCTYPE svg PUBLIC "-//W3C//DTD SVG 1.1//EN" "http://www.w3.org/Graphics/SVG/1.1/DTD/svg11.dtd">
<svg version="1.1" id="レイヤー_1" xmlns="http://www.w3.org/2000/svg" xmlns:xlink="http://www.w3.org/1999/xlink" x="0px"
	 y="0px" viewBox="0 0 24 24" enable-background="new 0 0 24 24" xml:space="preserve">
<path fill="#333333" d="M10,20v-6l5,3L10,20z M24,4.4L24,4.4L23,0L1.8,4.2C0.8,4.4,0,5.3,0,6.4V21c0,1.7,1.3,3,3,3h18
	c1.7,0,3-1.3,3-3V7H11.3L24,4.4z M20.1,1.8l2.4,1.6l-3,0.6l-2.4-1.6C17.1,2.4,20.1,1.8,20.1,1.8z M14.2,2.9l2.4,1.6l-3,0.6l-2.4-1.6
	L14.2,2.9z M8.3,4.1l2.4,1.6l-3,0.6L5.3,4.7L8.3,4.1z M10.8,8l-2,2H5.8l2-2H10.8z M19.8,8h3.1l-2,2h-3.1L19.8,8z M13.8,8h3.1l-2,2
	h-3.1C11.8,10,13.8,8,13.8,8z M22,12v8.8c0,0.7-0.6,1.2-1.2,1.2H3.2C2.6,22,2,21.4,2,20.8V12H22z"/>
</svg>
