<?xml version="1.0" encoding="utf-8"?>
<!-- Generator: Adobe Illustrator 17.1.0, SVG Export Plug-In . SVG Version: 6.00 Build 0)  -->
<!DOCTYPE svg PUBLIC "-//W3C//DTD SVG 1.1//EN" "http://www.w3.org/Graphics/SVG/1.1/DTD/svg11.dtd">
<svg version="1.1" id="_x32_" xmlns="http://www.w3.org/2000/svg" xmlns:xlink="http://www.w3.org/1999/xlink" x="0px" y="0px"
	 viewBox="0 0 150 150" enable-background="new 0 0 150 150" xml:space="preserve">
<g>
	<path fill="#333333" d="M136,31.4L136,31.4L136,31.4C136,31.3,136,31.3,136,31.4c-9.2-12.9-22.4-22.7-37.9-27.7l0,0
		C90.9,1.3,83.1,0,75,0c-8.1,0-15.9,1.3-23.1,3.7l0,0C36.5,8.6,23.2,18.5,14,31.4l0,0C5.2,43.6,0,58.6,0,74.9v0V75
		c0,16.7,5.5,32.2,14.8,44.7c9.1,12.2,21.8,21.6,36.6,26.5c0,0,0,0,0,0l0.1,0l-0.1,0c7.4,2.5,15.4,3.8,23.6,3.8
		c8.2,0,16.2-1.3,23.7-3.8c14.8-4.9,27.5-14.2,36.6-26.5l0,0C144.5,107.2,150,91.7,150,75v-0.1v0C150,58.7,144.8,43.6,136,31.4z
		 M77.5,22.3l13.9-10.1c1.2,0.3,2.4,0.6,3.6,1l0,0c13.3,4.3,24.8,12.8,32.7,24l0,0c0.7,1,1.4,2.1,2.1,3.1l-5.3,16.1l-29.7,9.7
		L77.5,53.5L77.5,22.3L77.5,22.3z M22.2,37.2L22.2,37.2c8-11.2,19.4-19.7,32.8-24l0,0c1.2-0.4,2.4-0.7,3.6-1l13.9,10.1v31.3
		L55.1,66.2l-29.7-9.7l-5.3-16.1C20.8,39.3,21.5,38.3,22.2,37.2z M25.3,116.7c-0.8-1-1.6-2-2.4-3l0,0c-8-10.8-12.8-24.1-12.8-38.7
		v-0.1c0-1.3,0.1-2.5,0.2-3.8l13.6-9.9L53.6,71l6.6,20.3l-18.4,25.3L25.3,116.7L25.3,116.7z M99,135.3c-1.2,0.5-2.4,0.9-3.6,1.3l0,0
		c-6.4,2.2-13.3,3.3-20.4,3.3c-7.1,0-14-1.1-20.4-3.3l0,0c-1.2-0.4-2.4-0.9-3.5-1.3l-5.1-15.6l18.4-25.4h21.3L104,120L99,135.3z
		 M139.9,75c0,14.5-4.7,27.9-12.8,38.7l0,0c-0.8,1-1.6,2-2.4,3h-16.9l-18-25.3L96.4,71l29.7-9.7l13.6,9.9
		C139.8,72.4,139.9,73.6,139.9,75L139.9,75L139.9,75z"/>
	<path fill="#333333" d="M98.7,146.2C98.7,146.2,98.7,146.2,98.7,146.2C98.6,146.2,98.6,146.2,98.7,146.2L98.7,146.2z"/>
</g>
</svg>
