<?xml version="1.0" encoding="utf-8"?>
<!-- Generator: Adobe Illustrator 17.1.0, SVG Export Plug-In . SVG Version: 6.00 Build 0)  -->
<!DOCTYPE svg PUBLIC "-//W3C//DTD SVG 1.1//EN" "http://www.w3.org/Graphics/SVG/1.1/DTD/svg11.dtd">
<svg version="1.1" id="レイヤー_1" xmlns="http://www.w3.org/2000/svg" xmlns:xlink="http://www.w3.org/1999/xlink" x="0px"
	 y="0px" viewBox="0 0 24 24" enable-background="new 0 0 24 24" xml:space="preserve">
<path fill="#333333" d="M6,23V12c-4,0-6,2.7-6,5.5C0,20.3,2,23,6,23z M24,17.5c0-2.8-2-5.5-6-5.5v11C22,23,24,20.3,24,17.5z M12,4
	c-3.9,0-6.9,2.3-7.7,6.2c-0.8,0.1-1.5,0.4-2.2,0.7C2.7,5.4,6.4,1,12,1c5.6,0,9.3,4.4,9.9,9.9c-0.7-0.3-1.4-0.6-2.2-0.7
	C18.9,6.3,15.9,4,12,4z"/>
</svg>
