<?xml version="1.0" encoding="utf-8"?>
<!-- Generator: Adobe Illustrator 17.1.0, SVG Export Plug-In . SVG Version: 6.00 Build 0)  -->
<!DOCTYPE svg PUBLIC "-//W3C//DTD SVG 1.1//EN" "http://www.w3.org/Graphics/SVG/1.1/DTD/svg11.dtd">
<svg version="1.1" id="レイヤー_1" xmlns="http://www.w3.org/2000/svg" xmlns:xlink="http://www.w3.org/1999/xlink" x="0px"
	 y="0px" viewBox="0 0 24 24" enable-background="new 0 0 24 24" xml:space="preserve">
<path fill="#333333" d="M5,4H2V3h3V4z M13,10c-1.7,0-3,1.3-3,3s1.3,3,3,3s3-1.3,3-3S14.7,10,13,10z M24,5v17H0V5h5.9
	c0.7,0,1.3-0.3,1.7-0.9L9,2h8l1.4,2.1c0.4,0.6,1,0.9,1.7,0.9H24z M5,9c0-0.6-0.4-1-1-1S3,8.4,3,9s0.4,1,1,1S5,9.6,5,9z M18,13
	c0-2.8-2.2-5-5-5s-5,2.2-5,5s2.2,5,5,5S18,15.8,18,13z"/>
</svg>
