<?xml version="1.0" encoding="utf-8"?>
<!-- Generator: Adobe Illustrator 17.1.0, SVG Export Plug-In . SVG Version: 6.00 Build 0)  -->
<!DOCTYPE svg PUBLIC "-//W3C//DTD SVG 1.1//EN" "http://www.w3.org/Graphics/SVG/1.1/DTD/svg11.dtd">
<svg version="1.1" id="Layer_1" xmlns="http://www.w3.org/2000/svg" xmlns:xlink="http://www.w3.org/1999/xlink" x="0px" y="0px"
	 viewBox="0 0 150 150" enable-background="new 0 0 150 150" xml:space="preserve">
<g>
	<path fill="#333333" d="M59.1,98.9c-8.1,1.3-19.5,0-19.5,0l20.6,8.8c0.1-1.2,1.1-5,1.1-5C59.5,101.7,59.1,98.9,59.1,98.9z"/>
	<path fill="#333333" d="M35.3,102c0,0,2.7-0.7,3.7-2.6c0,0-6.4,0-11.2-1.8C27.8,97.6,29,102.7,35.3,102z"/>
	<path fill="#333333" d="M68.8,114.6c-0.4-0.3-0.7-0.7-0.9-0.9c0,0,0-0.1-0.1-0.2c-0.4-0.9-1.1-2.7-0.9-4.8c0-0.2,0.1-0.4,0.1-0.6
		c0.5-2.4,2.2-4.7,4.3-6c1.1-0.7,2-0.5,2.5-0.3c0.3,0.1,0.5,0.3,0.7,0.5c0,0,0-0.1-0.1-0.2c0.2,0.2,0.3,0.3,0.3,0.3
		c-0.2-0.6-0.5-1.1-1-1.5c-0.3-0.5-0.7-0.9-1.1-1.3c0,0-1.5-0.7-2.9-1.1h0c-0.2-0.1-0.5-0.2-0.8-0.2c-0.5-0.2-1.1-0.2-1.3-0.2
		c-0.2,0-0.6,0.2-1.1,0.3c-0.1,0-0.2,0.1-0.3,0.1h0c-0.2,0.1-0.3,0.1-0.4,0.2c-0.1,0-0.1,0.1-0.2,0.1c-0.1,0-0.2,0.1-0.2,0.1
		c-0.6,0.4-1.3,0.9-1.9,1.7c0,0-0.1,0.1-0.1,0.1c-2.3,2.8-3.3,6.3-2.6,9.6c0.1,0.6,0.3,1.3,0.6,1.9c0,0,0,0.1,0,0.1
		c0,0,0,0.1,0.1,0.1c0,0.1,0.1,0.2,0.1,0.2c0.1,0.2,0.2,0.3,0.3,0.4c0.1,0.1,0.1,0.1,0.2,0.2c0.1,0.1,0.1,0.1,0.1,0.2
		c0.4,0.3,0.8,0.6,1.3,0.8c2.5,1.1,6.1,0.5,5.6,0.4C69.2,114.8,69,114.7,68.8,114.6z"/>
	<path fill="#333333" d="M73.2,103.1c-1.9-0.5-4.1,1.4-5,4.3c-0.8,2.9,0,5.8,1.9,6.3c1.9,0.5,4.1-1.4,5-4.3
		C76,106.4,75.1,103.6,73.2,103.1z"/>
	<path fill="#333333" d="M139.4,66c-1.4-0.3-3,1.2-3.5,3.4c-0.5,2.2,0.2,4.3,1.7,4.6c1.4,0.3,3-1.2,3.5-3.4
		C141.6,68.4,140.9,66.3,139.4,66z"/>
	<path fill="#333333" d="M135.9,74c-0.6-1.2-1.8-4.3,0.5-7.4c2.4-3.1,4.2-1,4.2-1c-0.9-2-3-2.5-3.8-2.8c-0.8-0.2-2.6-0.7-4.5,1.9
		c-2,2.6-2.4,6-1,8.6c1.4,2.6,6.4,1.5,5.8,1.4C136.4,74.8,135.9,74,135.9,74z"/>
	<path fill="#333333" d="M119.1,66.9c0,0,8.2,3.2,9.8,3c0,0,0.4-3.5,1.5-4.7l-4-2.1L119.1,66.9z"/>
	<path fill="#333333" d="M145.9,37.8c-10-6.1-25.4-1-29.6,1.7c-4.2,2.7-7.8,5.6-7.8,5.6s-9.1,0.7-13,2.7c-3.9,2-61.2,25-61.2,25
		l-16.1,8.6H4.9c0,0-8.8,2.7-2.7,5.8c6.1,3.2,25.4,14.9,59.2,9.8c0,0,70.7-38.5,75.9-39.7l7.1-2.7C144.4,54.6,155.9,43.9,145.9,37.8
		z M43.1,84c-0.8,0-1.5-0.7-1.5-1.5c0-0.8,0.7-1.5,1.5-1.5c0.8,0,1.5,0.7,1.5,1.5C44.6,83.4,43.9,84,43.1,84z M52.4,87.5
		c-0.8,0-1.5-0.7-1.5-1.5c0-0.8,0.7-1.5,1.5-1.5c0.8,0,1.5,0.7,1.5,1.5C53.8,86.8,53.2,87.5,52.4,87.5z M53.8,79.2
		c-0.8,0-1.5-0.7-1.5-1.5c0-0.8,0.7-1.5,1.5-1.5c0.8,0,1.5,0.7,1.5,1.5C55.3,78.5,54.7,79.2,53.8,79.2z M62.9,82.5
		c-0.8,0-1.5-0.7-1.5-1.5c0-0.8,0.7-1.5,1.5-1.5s1.5,0.7,1.5,1.5C64.3,81.9,63.7,82.5,62.9,82.5z M110.8,54.5
		c-0.7,0-1.2-0.5-1.2-1.2c0-0.7,0.5-1.2,1.2-1.2c0.7,0,1.2,0.5,1.2,1.2C112,53.9,111.5,54.5,110.8,54.5z M116.1,50.1
		c0-0.7,0.5-1.2,1.2-1.2c0.7,0,1.2,0.5,1.2,1.2s-0.5,1.2-1.2,1.2S116.1,50.7,116.1,50.1z M118.9,56.3c-0.7,0-1.2-0.5-1.2-1.2
		c0-0.7,0.5-1.2,1.2-1.2c0.7,0,1.2,0.5,1.2,1.2C120.1,55.7,119.6,56.3,118.9,56.3z M125.3,53.3c-0.7,0-1.2-0.5-1.2-1.2
		c0-0.7,0.5-1.2,1.2-1.2c0.7,0,1.2,0.5,1.2,1.2C126.5,52.7,126,53.3,125.3,53.3z"/>
</g>
</svg>
