<?xml version="1.0" encoding="utf-8"?>
<!-- Generator: Adobe Illustrator 17.1.0, SVG Export Plug-In . SVG Version: 6.00 Build 0)  -->
<!DOCTYPE svg PUBLIC "-//W3C//DTD SVG 1.1//EN" "http://www.w3.org/Graphics/SVG/1.1/DTD/svg11.dtd">
<svg version="1.1" id="_x32_" xmlns="http://www.w3.org/2000/svg" xmlns:xlink="http://www.w3.org/1999/xlink" x="0px" y="0px"
	 viewBox="0 0 150 150" enable-background="new 0 0 150 150" xml:space="preserve">
<g>
	<path fill="#333333" d="M81.7,27.8c7.7,0,13.9-6.2,13.9-13.9C95.6,6.2,89.4,0,81.7,0C74,0,67.8,6.2,67.8,13.9
		C67.8,21.6,74,27.8,81.7,27.8z"/>
	<path fill="#333333" d="M119.5,69.4L103.6,61l-6.7-13.8c-3.4-7-9.9-11.9-17.5-13.3l-6.9-1.3c-3.5-0.6-7.1-0.2-10.3,1.3l-20.1,9.5
		c-2.2,1.1-4,2.9-5,5.2l-8.9,20.9c-0.6,1.3-0.6,2.8,0,4.2c0.5,1.3,1.6,2.4,2.9,2.9l0.2,0.1c2.7,1.1,5.7-0.1,6.9-2.7l8.2-17.8l13-4.2
		l-12.9,57.2L34,140.5c-0.7,1.7-0.6,3.7,0.2,5.3c0.8,1.7,2.3,2.9,4.1,3.4l0.5,0.1c2.9,0.8,5.9-0.4,7.4-3l14.9-25.7l8.9-17.6
		l16.2,17.8l11.9,25.3c1.3,2.9,4.5,4.3,7.6,3.6l0.1,0c1.8-0.5,3.3-1.6,4.1-3.2c0.9-1.6,1-3.5,0.4-5.2l-8.8-25.5
		c-1.2-3.6-3.1-6.9-5.4-9.9L82,87l5.2-27.2l6.8,8.6c0.8,1.1,1.9,1.9,3.1,2.5l17.8,8c1.3,0.6,2.8,0.6,4.1,0.1
		c1.3-0.5,2.4-1.5,2.9-2.8l0.1-0.1C122.9,73.5,121.9,70.6,119.5,69.4z"/>
</g>
</svg>
