<?xml version="1.0" encoding="utf-8"?>
<!-- Generator: Adobe Illustrator 17.1.0, SVG Export Plug-In . SVG Version: 6.00 Build 0)  -->
<!DOCTYPE svg PUBLIC "-//W3C//DTD SVG 1.1//EN" "http://www.w3.org/Graphics/SVG/1.1/DTD/svg11.dtd">
<svg version="1.1" id="_x32_" xmlns="http://www.w3.org/2000/svg" xmlns:xlink="http://www.w3.org/1999/xlink" x="0px" y="0px"
	 viewBox="0 0 150 150" enable-background="new 0 0 150 150" xml:space="preserve">
<g>
	<path fill="#333333" d="M62.4,36.8C59,32.2,58.7,26,61.6,21.1l9.1-15.2c0.7-1.2,0.7-2.7,0-3.9c-0.7-1.2-2-2-3.4-2H44.3H21.2
		c-1.4,0-2.7,0.8-3.4,2c-0.7,1.2-0.7,2.7,0.1,3.9l9.1,15.2c2.9,4.9,2.6,11.1-0.7,15.7l-8.6,13.6c-4.3,6.8-6.6,14.7-6.6,22.7v60.9
		c0,8.8,7.1,15.9,15.9,15.9h34.8c8.8,0,15.9-7.1,15.9-15.9V73.2c0-8.1-2.3-15.9-6.6-22.7L62.4,36.8z"/>
	<path fill="#333333" d="M84.1,105.8v7.5c0,10.4,5.8,19.5,14.4,24.2v8.3h26.3v-8.3c8.6-4.7,14.4-13.7,14.4-24.2v-7.5
		C139.1,105.8,84.1,105.8,84.1,105.8z"/>
</g>
</svg>
